<?xml version="1.0" encoding="UTF-8" standalone="no"?>
<!DOCTYPE svg PUBLIC "-//W3C//DTD SVG 1.1//EN"
 "http://www.w3.org/Graphics/SVG/1.1/DTD/svg11.dtd">
<!-- Generated by graphviz version 6.0.1 (20220911.1526)
 -->
<!-- Pages: 1 -->
<svg width="734pt" height="210pt"
 viewBox="0.00 0.00 734.00 210.00" xmlns="http://www.w3.org/2000/svg" xmlns:xlink="http://www.w3.org/1999/xlink">
<g id="graph0" class="graph" transform="scale(1 1) rotate(0) translate(4 206)">
<polygon fill="white" stroke="none" points="-4,4 -4,-206 730,-206 730,4 -4,4"/>
<!-- 2376678703008 -->
<g id="node1" class="node">
<title>2376678703008</title>
<polygon fill="none" stroke="black" points="213,-132.5 213,-201.5 301,-201.5 301,-132.5 213,-132.5"/>
<text text-anchor="middle" x="257" y="-186.3" font-family="Times New Roman,serif" font-size="14.00">c</text>
<polyline fill="none" stroke="black" points="213,-178.5 301,-178.5"/>
<text text-anchor="middle" x="257" y="-163.3" font-family="Times New Roman,serif" font-size="14.00">data 10.0000</text>
<polyline fill="none" stroke="black" points="213,-155.5 301,-155.5"/>
<text text-anchor="middle" x="257" y="-140.3" font-family="Times New Roman,serif" font-size="14.00">grad &#45;2.0000</text>
</g>
<!-- 2376678693600+ -->
<g id="node5" class="node">
<title>2376678693600+</title>
<ellipse fill="none" stroke="black" cx="364" cy="-123" rx="27" ry="18"/>
<text text-anchor="middle" x="364" y="-119.3" font-family="Times New Roman,serif" font-size="14.00">+</text>
</g>
<!-- 2376678703008&#45;&gt;2376678693600+ -->
<g id="edge5" class="edge">
<title>2376678703008&#45;&gt;2376678693600+</title>
<path fill="none" stroke="black" d="M301.01,-148.98C311.1,-144.75 321.67,-140.32 331.17,-136.34"/>
<polygon fill="black" stroke="black" points="332.74,-139.47 340.61,-132.38 330.04,-133.02 332.74,-139.47"/>
</g>
<!-- 2376678693504 -->
<g id="node2" class="node">
<title>2376678693504</title>
<polygon fill="none" stroke="black" points="213.5,-44.5 213.5,-113.5 300.5,-113.5 300.5,-44.5 213.5,-44.5"/>
<text text-anchor="middle" x="257" y="-98.3" font-family="Times New Roman,serif" font-size="14.00">e</text>
<polyline fill="none" stroke="black" points="213.5,-90.5 300.5,-90.5"/>
<text text-anchor="middle" x="257" y="-75.3" font-family="Times New Roman,serif" font-size="14.00">data &#45;6.0000</text>
<polyline fill="none" stroke="black" points="213.5,-67.5 300.5,-67.5"/>
<text text-anchor="middle" x="257" y="-52.3" font-family="Times New Roman,serif" font-size="14.00">grad &#45;2.0000</text>
</g>
<!-- 2376678693504&#45;&gt;2376678693600+ -->
<g id="edge8" class="edge">
<title>2376678693504&#45;&gt;2376678693600+</title>
<path fill="none" stroke="black" d="M300.71,-96.9C311.01,-101.21 321.84,-105.75 331.52,-109.81"/>
<polygon fill="black" stroke="black" points="330.19,-113.05 340.76,-113.68 332.89,-106.59 330.19,-113.05"/>
</g>
<!-- 2376678693504* -->
<g id="node3" class="node">
<title>2376678693504*</title>
<ellipse fill="none" stroke="black" cx="150" cy="-79" rx="27" ry="18"/>
<text text-anchor="middle" x="150" y="-75.3" font-family="Times New Roman,serif" font-size="14.00">*</text>
</g>
<!-- 2376678693504*&#45;&gt;2376678693504 -->
<g id="edge1" class="edge">
<title>2376678693504*&#45;&gt;2376678693504</title>
<path fill="none" stroke="black" d="M177.23,-79C185.17,-79 194.19,-79 203.23,-79"/>
<polygon fill="black" stroke="black" points="203.38,-82.5 213.38,-79 203.38,-75.5 203.38,-82.5"/>
</g>
<!-- 2376678693600 -->
<g id="node4" class="node">
<title>2376678693600</title>
<polygon fill="none" stroke="black" points="427,-88.5 427,-157.5 514,-157.5 514,-88.5 427,-88.5"/>
<text text-anchor="middle" x="470.5" y="-142.3" font-family="Times New Roman,serif" font-size="14.00">d</text>
<polyline fill="none" stroke="black" points="427,-134.5 514,-134.5"/>
<text text-anchor="middle" x="470.5" y="-119.3" font-family="Times New Roman,serif" font-size="14.00">data 4.0000</text>
<polyline fill="none" stroke="black" points="427,-111.5 514,-111.5"/>
<text text-anchor="middle" x="470.5" y="-96.3" font-family="Times New Roman,serif" font-size="14.00">grad &#45;2.0000</text>
</g>
<!-- 2376678695328* -->
<g id="node9" class="node">
<title>2376678695328*</title>
<ellipse fill="none" stroke="black" cx="577" cy="-79" rx="27" ry="18"/>
<text text-anchor="middle" x="577" y="-75.3" font-family="Times New Roman,serif" font-size="14.00">*</text>
</g>
<!-- 2376678693600&#45;&gt;2376678695328* -->
<g id="edge6" class="edge">
<title>2376678693600&#45;&gt;2376678695328*</title>
<path fill="none" stroke="black" d="M514,-105.1C524.15,-100.83 534.81,-96.34 544.37,-92.32"/>
<polygon fill="black" stroke="black" points="546.01,-95.42 553.87,-88.32 543.3,-88.97 546.01,-95.42"/>
</g>
<!-- 2376678693600+&#45;&gt;2376678693600 -->
<g id="edge2" class="edge">
<title>2376678693600+&#45;&gt;2376678693600</title>
<path fill="none" stroke="black" d="M391.1,-123C398.83,-123 407.6,-123 416.4,-123"/>
<polygon fill="black" stroke="black" points="416.68,-126.5 426.68,-123 416.68,-119.5 416.68,-126.5"/>
</g>
<!-- 2376678693696 -->
<g id="node6" class="node">
<title>2376678693696</title>
<polygon fill="none" stroke="black" points="427.5,-0.5 427.5,-69.5 513.5,-69.5 513.5,-0.5 427.5,-0.5"/>
<text text-anchor="middle" x="470.5" y="-54.3" font-family="Times New Roman,serif" font-size="14.00">f</text>
<polyline fill="none" stroke="black" points="427.5,-46.5 513.5,-46.5"/>
<text text-anchor="middle" x="470.5" y="-31.3" font-family="Times New Roman,serif" font-size="14.00">data &#45;2.0000</text>
<polyline fill="none" stroke="black" points="427.5,-23.5 513.5,-23.5"/>
<text text-anchor="middle" x="470.5" y="-8.3" font-family="Times New Roman,serif" font-size="14.00">grad 4.0000</text>
</g>
<!-- 2376678693696&#45;&gt;2376678695328* -->
<g id="edge4" class="edge">
<title>2376678693696&#45;&gt;2376678695328*</title>
<path fill="none" stroke="black" d="M513.7,-52.77C523.98,-57.1 534.8,-61.65 544.49,-65.73"/>
<polygon fill="black" stroke="black" points="543.16,-68.97 553.74,-69.63 545.88,-62.52 543.16,-68.97"/>
</g>
<!-- 2376614444912 -->
<g id="node7" class="node">
<title>2376614444912</title>
<polygon fill="none" stroke="black" points="0,-88.5 0,-157.5 87,-157.5 87,-88.5 0,-88.5"/>
<text text-anchor="middle" x="43.5" y="-142.3" font-family="Times New Roman,serif" font-size="14.00">b</text>
<polyline fill="none" stroke="black" points="0,-134.5 87,-134.5"/>
<text text-anchor="middle" x="43.5" y="-119.3" font-family="Times New Roman,serif" font-size="14.00">data &#45;3.0000</text>
<polyline fill="none" stroke="black" points="0,-111.5 87,-111.5"/>
<text text-anchor="middle" x="43.5" y="-96.3" font-family="Times New Roman,serif" font-size="14.00">grad &#45;4.0000</text>
</g>
<!-- 2376614444912&#45;&gt;2376678693504* -->
<g id="edge9" class="edge">
<title>2376614444912&#45;&gt;2376678693504*</title>
<path fill="none" stroke="black" d="M87,-105.1C97.15,-100.83 107.81,-96.34 117.37,-92.32"/>
<polygon fill="black" stroke="black" points="119.01,-95.42 126.87,-88.32 116.3,-88.97 119.01,-95.42"/>
</g>
<!-- 2376678695328 -->
<g id="node8" class="node">
<title>2376678695328</title>
<polygon fill="none" stroke="black" points="640,-44.5 640,-113.5 726,-113.5 726,-44.5 640,-44.5"/>
<text text-anchor="middle" x="683" y="-98.3" font-family="Times New Roman,serif" font-size="14.00">L</text>
<polyline fill="none" stroke="black" points="640,-90.5 726,-90.5"/>
<text text-anchor="middle" x="683" y="-75.3" font-family="Times New Roman,serif" font-size="14.00">data &#45;8.0000</text>
<polyline fill="none" stroke="black" points="640,-67.5 726,-67.5"/>
<text text-anchor="middle" x="683" y="-52.3" font-family="Times New Roman,serif" font-size="14.00">grad 1.0000</text>
</g>
<!-- 2376678695328*&#45;&gt;2376678695328 -->
<g id="edge3" class="edge">
<title>2376678695328*&#45;&gt;2376678695328</title>
<path fill="none" stroke="black" d="M604.24,-79C612.11,-79 621.04,-79 629.96,-79"/>
<polygon fill="black" stroke="black" points="629.98,-82.5 639.98,-79 629.98,-75.5 629.98,-82.5"/>
</g>
<!-- 2376614445008 -->
<g id="node10" class="node">
<title>2376614445008</title>
<polygon fill="none" stroke="black" points="2,-0.5 2,-69.5 85,-69.5 85,-0.5 2,-0.5"/>
<text text-anchor="middle" x="43.5" y="-54.3" font-family="Times New Roman,serif" font-size="14.00">a</text>
<polyline fill="none" stroke="black" points="2,-46.5 85,-46.5"/>
<text text-anchor="middle" x="43.5" y="-31.3" font-family="Times New Roman,serif" font-size="14.00">data 2.0000</text>
<polyline fill="none" stroke="black" points="2,-23.5 85,-23.5"/>
<text text-anchor="middle" x="43.5" y="-8.3" font-family="Times New Roman,serif" font-size="14.00">grad 6.0000</text>
</g>
<!-- 2376614445008&#45;&gt;2376678693504* -->
<g id="edge7" class="edge">
<title>2376614445008&#45;&gt;2376678693504*</title>
<path fill="none" stroke="black" d="M85.2,-52.14C95.89,-56.64 107.25,-61.42 117.38,-65.68"/>
<polygon fill="black" stroke="black" points="116.07,-68.93 126.65,-69.59 118.79,-62.48 116.07,-68.93"/>
</g>
</g>
</svg>
