<?xml version="1.0" encoding="UTF-8" standalone="no"?>
<!DOCTYPE svg PUBLIC "-//W3C//DTD SVG 1.1//EN"
 "http://www.w3.org/Graphics/SVG/1.1/DTD/svg11.dtd">
<!-- Generated by graphviz version 6.0.1 (20220911.1526)
 -->
<!-- Pages: 1 -->
<svg width="734pt" height="254pt"
 viewBox="0.00 0.00 734.00 254.00" xmlns="http://www.w3.org/2000/svg" xmlns:xlink="http://www.w3.org/1999/xlink">
<g id="graph0" class="graph" transform="scale(1 1) rotate(0) translate(4 250)">
<polygon fill="white" stroke="none" points="-4,4 -4,-250 730,-250 730,4 -4,4"/>
<!-- 2603538931792 -->
<g id="node1" class="node">
<title>2603538931792</title>
<polygon fill="none" stroke="black" points="640,-44.5 640,-113.5 726,-113.5 726,-44.5 640,-44.5"/>
<text text-anchor="middle" x="683" y="-98.3" font-family="Times New Roman,serif" font-size="14.00">L</text>
<polyline fill="none" stroke="black" points="640,-90.5 726,-90.5"/>
<text text-anchor="middle" x="683" y="-75.3" font-family="Times New Roman,serif" font-size="14.00">data &#45;8.0000</text>
<polyline fill="none" stroke="black" points="640,-67.5 726,-67.5"/>
<text text-anchor="middle" x="683" y="-52.3" font-family="Times New Roman,serif" font-size="14.00">grad 1.0000</text>
</g>
<!-- 2603538931792* -->
<g id="node2" class="node">
<title>2603538931792*</title>
<ellipse fill="none" stroke="black" cx="577" cy="-79" rx="27" ry="18"/>
<text text-anchor="middle" x="577" y="-75.3" font-family="Times New Roman,serif" font-size="14.00">*</text>
</g>
<!-- 2603538931792*&#45;&gt;2603538931792 -->
<g id="edge1" class="edge">
<title>2603538931792*&#45;&gt;2603538931792</title>
<path fill="none" stroke="black" d="M604.24,-79C612.11,-79 621.04,-79 629.96,-79"/>
<polygon fill="black" stroke="black" points="629.98,-82.5 639.98,-79 629.98,-75.5 629.98,-82.5"/>
</g>
<!-- 2603474648752 -->
<g id="node3" class="node">
<title>2603474648752</title>
<polygon fill="none" stroke="black" points="0,-176.5 0,-245.5 87,-245.5 87,-176.5 0,-176.5"/>
<text text-anchor="middle" x="43.5" y="-230.3" font-family="Times New Roman,serif" font-size="14.00">b</text>
<polyline fill="none" stroke="black" points="0,-222.5 87,-222.5"/>
<text text-anchor="middle" x="43.5" y="-207.3" font-family="Times New Roman,serif" font-size="14.00">data &#45;3.0000</text>
<polyline fill="none" stroke="black" points="0,-199.5 87,-199.5"/>
<text text-anchor="middle" x="43.5" y="-184.3" font-family="Times New Roman,serif" font-size="14.00">grad &#45;4.0000</text>
</g>
<!-- 2603538931552* -->
<g id="node7" class="node">
<title>2603538931552*</title>
<ellipse fill="none" stroke="black" cx="150" cy="-167" rx="27" ry="18"/>
<text text-anchor="middle" x="150" y="-163.3" font-family="Times New Roman,serif" font-size="14.00">*</text>
</g>
<!-- 2603474648752&#45;&gt;2603538931552* -->
<g id="edge5" class="edge">
<title>2603474648752&#45;&gt;2603538931552*</title>
<path fill="none" stroke="black" d="M87,-193.1C97.15,-188.83 107.81,-184.34 117.37,-180.32"/>
<polygon fill="black" stroke="black" points="119.01,-183.42 126.87,-176.32 116.3,-176.97 119.01,-183.42"/>
</g>
<!-- 2603538931504 -->
<g id="node4" class="node">
<title>2603538931504</title>
<polygon fill="none" stroke="black" points="427,-88.5 427,-157.5 514,-157.5 514,-88.5 427,-88.5"/>
<text text-anchor="middle" x="470.5" y="-142.3" font-family="Times New Roman,serif" font-size="14.00">d</text>
<polyline fill="none" stroke="black" points="427,-134.5 514,-134.5"/>
<text text-anchor="middle" x="470.5" y="-119.3" font-family="Times New Roman,serif" font-size="14.00">data 4.0000</text>
<polyline fill="none" stroke="black" points="427,-111.5 514,-111.5"/>
<text text-anchor="middle" x="470.5" y="-96.3" font-family="Times New Roman,serif" font-size="14.00">grad &#45;2.0000</text>
</g>
<!-- 2603538931504&#45;&gt;2603538931792* -->
<g id="edge7" class="edge">
<title>2603538931504&#45;&gt;2603538931792*</title>
<path fill="none" stroke="black" d="M514,-105.1C524.15,-100.83 534.81,-96.34 544.37,-92.32"/>
<polygon fill="black" stroke="black" points="546.01,-95.42 553.87,-88.32 543.3,-88.97 546.01,-95.42"/>
</g>
<!-- 2603538931504+ -->
<g id="node5" class="node">
<title>2603538931504+</title>
<ellipse fill="none" stroke="black" cx="364" cy="-123" rx="27" ry="18"/>
<text text-anchor="middle" x="364" y="-119.3" font-family="Times New Roman,serif" font-size="14.00">+</text>
</g>
<!-- 2603538931504+&#45;&gt;2603538931504 -->
<g id="edge2" class="edge">
<title>2603538931504+&#45;&gt;2603538931504</title>
<path fill="none" stroke="black" d="M391.1,-123C398.83,-123 407.6,-123 416.4,-123"/>
<polygon fill="black" stroke="black" points="416.68,-126.5 426.68,-123 416.68,-119.5 416.68,-126.5"/>
</g>
<!-- 2603538931552 -->
<g id="node6" class="node">
<title>2603538931552</title>
<polygon fill="none" stroke="black" points="213.5,-132.5 213.5,-201.5 300.5,-201.5 300.5,-132.5 213.5,-132.5"/>
<text text-anchor="middle" x="257" y="-186.3" font-family="Times New Roman,serif" font-size="14.00">e</text>
<polyline fill="none" stroke="black" points="213.5,-178.5 300.5,-178.5"/>
<text text-anchor="middle" x="257" y="-163.3" font-family="Times New Roman,serif" font-size="14.00">data &#45;6.0000</text>
<polyline fill="none" stroke="black" points="213.5,-155.5 300.5,-155.5"/>
<text text-anchor="middle" x="257" y="-140.3" font-family="Times New Roman,serif" font-size="14.00">grad &#45;2.0000</text>
</g>
<!-- 2603538931552&#45;&gt;2603538931504+ -->
<g id="edge4" class="edge">
<title>2603538931552&#45;&gt;2603538931504+</title>
<path fill="none" stroke="black" d="M300.71,-149.1C311.01,-144.79 321.84,-140.25 331.52,-136.19"/>
<polygon fill="black" stroke="black" points="332.89,-139.41 340.76,-132.32 330.19,-132.95 332.89,-139.41"/>
</g>
<!-- 2603538931552*&#45;&gt;2603538931552 -->
<g id="edge3" class="edge">
<title>2603538931552*&#45;&gt;2603538931552</title>
<path fill="none" stroke="black" d="M177.23,-167C185.17,-167 194.19,-167 203.23,-167"/>
<polygon fill="black" stroke="black" points="203.38,-170.5 213.38,-167 203.38,-163.5 203.38,-170.5"/>
</g>
<!-- 2603538510176 -->
<g id="node8" class="node">
<title>2603538510176</title>
<polygon fill="none" stroke="black" points="213,-44.5 213,-113.5 301,-113.5 301,-44.5 213,-44.5"/>
<text text-anchor="middle" x="257" y="-98.3" font-family="Times New Roman,serif" font-size="14.00">c</text>
<polyline fill="none" stroke="black" points="213,-90.5 301,-90.5"/>
<text text-anchor="middle" x="257" y="-75.3" font-family="Times New Roman,serif" font-size="14.00">data 10.0000</text>
<polyline fill="none" stroke="black" points="213,-67.5 301,-67.5"/>
<text text-anchor="middle" x="257" y="-52.3" font-family="Times New Roman,serif" font-size="14.00">grad &#45;2.0000</text>
</g>
<!-- 2603538510176&#45;&gt;2603538931504+ -->
<g id="edge9" class="edge">
<title>2603538510176&#45;&gt;2603538931504+</title>
<path fill="none" stroke="black" d="M301.01,-97.02C311.1,-101.25 321.67,-105.68 331.17,-109.66"/>
<polygon fill="black" stroke="black" points="330.04,-112.98 340.61,-113.62 332.74,-106.53 330.04,-112.98"/>
</g>
<!-- 2603474649040 -->
<g id="node9" class="node">
<title>2603474649040</title>
<polygon fill="none" stroke="black" points="2,-88.5 2,-157.5 85,-157.5 85,-88.5 2,-88.5"/>
<text text-anchor="middle" x="43.5" y="-142.3" font-family="Times New Roman,serif" font-size="14.00">a</text>
<polyline fill="none" stroke="black" points="2,-134.5 85,-134.5"/>
<text text-anchor="middle" x="43.5" y="-119.3" font-family="Times New Roman,serif" font-size="14.00">data 2.0000</text>
<polyline fill="none" stroke="black" points="2,-111.5 85,-111.5"/>
<text text-anchor="middle" x="43.5" y="-96.3" font-family="Times New Roman,serif" font-size="14.00">grad 6.0000</text>
</g>
<!-- 2603474649040&#45;&gt;2603538931552* -->
<g id="edge6" class="edge">
<title>2603474649040&#45;&gt;2603538931552*</title>
<path fill="none" stroke="black" d="M85.2,-140.14C95.89,-144.64 107.25,-149.42 117.38,-153.68"/>
<polygon fill="black" stroke="black" points="116.07,-156.93 126.65,-157.59 118.79,-150.48 116.07,-156.93"/>
</g>
<!-- 2603538931696 -->
<g id="node10" class="node">
<title>2603538931696</title>
<polygon fill="none" stroke="black" points="427.5,-0.5 427.5,-69.5 513.5,-69.5 513.5,-0.5 427.5,-0.5"/>
<text text-anchor="middle" x="470.5" y="-54.3" font-family="Times New Roman,serif" font-size="14.00">f</text>
<polyline fill="none" stroke="black" points="427.5,-46.5 513.5,-46.5"/>
<text text-anchor="middle" x="470.5" y="-31.3" font-family="Times New Roman,serif" font-size="14.00">data &#45;2.0000</text>
<polyline fill="none" stroke="black" points="427.5,-23.5 513.5,-23.5"/>
<text text-anchor="middle" x="470.5" y="-8.3" font-family="Times New Roman,serif" font-size="14.00">grad 4.0000</text>
</g>
<!-- 2603538931696&#45;&gt;2603538931792* -->
<g id="edge8" class="edge">
<title>2603538931696&#45;&gt;2603538931792*</title>
<path fill="none" stroke="black" d="M513.7,-52.77C523.98,-57.1 534.8,-61.65 544.49,-65.73"/>
<polygon fill="black" stroke="black" points="543.16,-68.97 553.74,-69.63 545.88,-62.52 543.16,-68.97"/>
</g>
</g>
</svg>
