<?xml version="1.0" encoding="UTF-8" standalone="no"?>
<!DOCTYPE svg PUBLIC "-//W3C//DTD SVG 1.1//EN"
 "http://www.w3.org/Graphics/SVG/1.1/DTD/svg11.dtd">
<!-- Generated by graphviz version 6.0.1 (20220911.1526)
 -->
<!-- Pages: 1 -->
<svg width="957pt" height="342pt"
 viewBox="0.00 0.00 957.00 342.00" xmlns="http://www.w3.org/2000/svg" xmlns:xlink="http://www.w3.org/1999/xlink">
<g id="graph0" class="graph" transform="scale(1 1) rotate(0) translate(4 338)">
<polygon fill="white" stroke="none" points="-4,4 -4,-338 953,-338 953,4 -4,4"/>
<!-- 2387103252384 -->
<g id="node1" class="node">
<title>2387103252384</title>
<polygon fill="none" stroke="black" points="2,-264.5 2,-333.5 85,-333.5 85,-264.5 2,-264.5"/>
<text text-anchor="middle" x="43.5" y="-318.3" font-family="Times New Roman,serif" font-size="14.00">x2</text>
<polyline fill="none" stroke="black" points="2,-310.5 85,-310.5"/>
<text text-anchor="middle" x="43.5" y="-295.3" font-family="Times New Roman,serif" font-size="14.00">data 0.0000</text>
<polyline fill="none" stroke="black" points="2,-287.5 85,-287.5"/>
<text text-anchor="middle" x="43.5" y="-272.3" font-family="Times New Roman,serif" font-size="14.00">grad 0.5000</text>
</g>
<!-- 2387171167488* -->
<g id="node7" class="node">
<title>2387171167488*</title>
<ellipse fill="none" stroke="black" cx="150" cy="-211" rx="27" ry="18"/>
<text text-anchor="middle" x="150" y="-207.3" font-family="Times New Roman,serif" font-size="14.00">*</text>
</g>
<!-- 2387103252384&#45;&gt;2387171167488* -->
<g id="edge8" class="edge">
<title>2387103252384&#45;&gt;2387171167488*</title>
<path fill="none" stroke="black" d="M85.2,-264.72C98.61,-253.43 113.09,-241.24 124.86,-231.33"/>
<polygon fill="black" stroke="black" points="127.13,-233.99 132.53,-224.87 122.62,-228.64 127.13,-233.99"/>
</g>
<!-- 2387171167296 -->
<g id="node2" class="node">
<title>2387171167296</title>
<polygon fill="none" stroke="black" points="213,-88.5 213,-157.5 299,-157.5 299,-88.5 213,-88.5"/>
<text text-anchor="middle" x="256" y="-142.3" font-family="Times New Roman,serif" font-size="14.00">x1*w1</text>
<polyline fill="none" stroke="black" points="213,-134.5 299,-134.5"/>
<text text-anchor="middle" x="256" y="-119.3" font-family="Times New Roman,serif" font-size="14.00">data &#45;6.0000</text>
<polyline fill="none" stroke="black" points="213,-111.5 299,-111.5"/>
<text text-anchor="middle" x="256" y="-96.3" font-family="Times New Roman,serif" font-size="14.00">grad 0.5000</text>
</g>
<!-- 2387171167680+ -->
<g id="node14" class="node">
<title>2387171167680+</title>
<ellipse fill="none" stroke="black" cx="362" cy="-167" rx="27" ry="18"/>
<text text-anchor="middle" x="362" y="-163.3" font-family="Times New Roman,serif" font-size="14.00">+</text>
</g>
<!-- 2387171167296&#45;&gt;2387171167680+ -->
<g id="edge10" class="edge">
<title>2387171167296&#45;&gt;2387171167680+</title>
<path fill="none" stroke="black" d="M299,-140.77C309.13,-145.05 319.78,-149.56 329.34,-153.61"/>
<polygon fill="black" stroke="black" points="328.27,-156.95 338.84,-157.63 331,-150.51 328.27,-156.95"/>
</g>
<!-- 2387171167296* -->
<g id="node3" class="node">
<title>2387171167296*</title>
<ellipse fill="none" stroke="black" cx="150" cy="-123" rx="27" ry="18"/>
<text text-anchor="middle" x="150" y="-119.3" font-family="Times New Roman,serif" font-size="14.00">*</text>
</g>
<!-- 2387171167296*&#45;&gt;2387171167296 -->
<g id="edge1" class="edge">
<title>2387171167296*&#45;&gt;2387171167296</title>
<path fill="none" stroke="black" d="M177.24,-123C185.11,-123 194.04,-123 202.96,-123"/>
<polygon fill="black" stroke="black" points="202.98,-126.5 212.98,-123 202.98,-119.5 202.98,-126.5"/>
</g>
<!-- 2387171167872 -->
<g id="node4" class="node">
<title>2387171167872</title>
<polygon fill="none" stroke="black" points="657,-88.5 657,-157.5 740,-157.5 740,-88.5 657,-88.5"/>
<text text-anchor="middle" x="698.5" y="-142.3" font-family="Times New Roman,serif" font-size="14.00">n</text>
<polyline fill="none" stroke="black" points="657,-134.5 740,-134.5"/>
<text text-anchor="middle" x="698.5" y="-119.3" font-family="Times New Roman,serif" font-size="14.00">data 0.8814</text>
<polyline fill="none" stroke="black" points="657,-111.5 740,-111.5"/>
<text text-anchor="middle" x="698.5" y="-96.3" font-family="Times New Roman,serif" font-size="14.00">grad 0.5000</text>
</g>
<!-- 2387171168064tanh -->
<g id="node10" class="node">
<title>2387171168064tanh</title>
<ellipse fill="none" stroke="black" cx="803" cy="-123" rx="27" ry="18"/>
<text text-anchor="middle" x="803" y="-119.3" font-family="Times New Roman,serif" font-size="14.00">tanh</text>
</g>
<!-- 2387171167872&#45;&gt;2387171168064tanh -->
<g id="edge11" class="edge">
<title>2387171167872&#45;&gt;2387171168064tanh</title>
<path fill="none" stroke="black" d="M740.01,-123C748.51,-123 757.42,-123 765.75,-123"/>
<polygon fill="black" stroke="black" points="765.92,-126.5 775.92,-123 765.92,-119.5 765.92,-126.5"/>
</g>
<!-- 2387171167872+ -->
<g id="node5" class="node">
<title>2387171167872+</title>
<ellipse fill="none" stroke="black" cx="594" cy="-123" rx="27" ry="18"/>
<text text-anchor="middle" x="594" y="-119.3" font-family="Times New Roman,serif" font-size="14.00">+</text>
</g>
<!-- 2387171167872+&#45;&gt;2387171167872 -->
<g id="edge2" class="edge">
<title>2387171167872+&#45;&gt;2387171167872</title>
<path fill="none" stroke="black" d="M621.13,-123C628.89,-123 637.67,-123 646.44,-123"/>
<polygon fill="black" stroke="black" points="646.67,-126.5 656.67,-123 646.67,-119.5 646.67,-126.5"/>
</g>
<!-- 2387171167488 -->
<g id="node6" class="node">
<title>2387171167488</title>
<polygon fill="none" stroke="black" points="214.5,-176.5 214.5,-245.5 297.5,-245.5 297.5,-176.5 214.5,-176.5"/>
<text text-anchor="middle" x="256" y="-230.3" font-family="Times New Roman,serif" font-size="14.00">x2*w2</text>
<polyline fill="none" stroke="black" points="214.5,-222.5 297.5,-222.5"/>
<text text-anchor="middle" x="256" y="-207.3" font-family="Times New Roman,serif" font-size="14.00">data 0.0000</text>
<polyline fill="none" stroke="black" points="214.5,-199.5 297.5,-199.5"/>
<text text-anchor="middle" x="256" y="-184.3" font-family="Times New Roman,serif" font-size="14.00">grad 0.5000</text>
</g>
<!-- 2387171167488&#45;&gt;2387171167680+ -->
<g id="edge9" class="edge">
<title>2387171167488&#45;&gt;2387171167680+</title>
<path fill="none" stroke="black" d="M297.51,-193.86C308.14,-189.36 319.45,-184.58 329.53,-180.32"/>
<polygon fill="black" stroke="black" points="330.91,-183.53 338.76,-176.41 328.18,-177.08 330.91,-183.53"/>
</g>
<!-- 2387171167488*&#45;&gt;2387171167488 -->
<g id="edge3" class="edge">
<title>2387171167488*&#45;&gt;2387171167488</title>
<path fill="none" stroke="black" d="M177.24,-211C185.46,-211 194.83,-211 204.15,-211"/>
<polygon fill="black" stroke="black" points="204.19,-214.5 214.19,-211 204.19,-207.5 204.19,-214.5"/>
</g>
<!-- 2387103252432 -->
<g id="node8" class="node">
<title>2387103252432</title>
<polygon fill="none" stroke="black" points="0,-88.5 0,-157.5 87,-157.5 87,-88.5 0,-88.5"/>
<text text-anchor="middle" x="43.5" y="-142.3" font-family="Times New Roman,serif" font-size="14.00">x1</text>
<polyline fill="none" stroke="black" points="0,-134.5 87,-134.5"/>
<text text-anchor="middle" x="43.5" y="-119.3" font-family="Times New Roman,serif" font-size="14.00">data 2.0000</text>
<polyline fill="none" stroke="black" points="0,-111.5 87,-111.5"/>
<text text-anchor="middle" x="43.5" y="-96.3" font-family="Times New Roman,serif" font-size="14.00">grad &#45;1.5000</text>
</g>
<!-- 2387103252432&#45;&gt;2387171167296* -->
<g id="edge12" class="edge">
<title>2387103252432&#45;&gt;2387171167296*</title>
<path fill="none" stroke="black" d="M87,-123C95.51,-123 104.37,-123 112.64,-123"/>
<polygon fill="black" stroke="black" points="112.73,-126.5 122.73,-123 112.73,-119.5 112.73,-126.5"/>
</g>
<!-- 2387171168064 -->
<g id="node9" class="node">
<title>2387171168064</title>
<polygon fill="none" stroke="black" points="866,-88.5 866,-157.5 949,-157.5 949,-88.5 866,-88.5"/>
<text text-anchor="middle" x="907.5" y="-142.3" font-family="Times New Roman,serif" font-size="14.00">o</text>
<polyline fill="none" stroke="black" points="866,-134.5 949,-134.5"/>
<text text-anchor="middle" x="907.5" y="-119.3" font-family="Times New Roman,serif" font-size="14.00">data 0.7071</text>
<polyline fill="none" stroke="black" points="866,-111.5 949,-111.5"/>
<text text-anchor="middle" x="907.5" y="-96.3" font-family="Times New Roman,serif" font-size="14.00">grad 1.0000</text>
</g>
<!-- 2387171168064tanh&#45;&gt;2387171168064 -->
<g id="edge4" class="edge">
<title>2387171168064tanh&#45;&gt;2387171168064</title>
<path fill="none" stroke="black" d="M830.13,-123C837.89,-123 846.67,-123 855.44,-123"/>
<polygon fill="black" stroke="black" points="855.67,-126.5 865.67,-123 855.67,-119.5 855.67,-126.5"/>
</g>
<!-- 2387103252336 -->
<g id="node11" class="node">
<title>2387103252336</title>
<polygon fill="none" stroke="black" points="0.5,-0.5 0.5,-69.5 86.5,-69.5 86.5,-0.5 0.5,-0.5"/>
<text text-anchor="middle" x="43.5" y="-54.3" font-family="Times New Roman,serif" font-size="14.00">w1</text>
<polyline fill="none" stroke="black" points="0.5,-46.5 86.5,-46.5"/>
<text text-anchor="middle" x="43.5" y="-31.3" font-family="Times New Roman,serif" font-size="14.00">data &#45;3.0000</text>
<polyline fill="none" stroke="black" points="0.5,-23.5 86.5,-23.5"/>
<text text-anchor="middle" x="43.5" y="-8.3" font-family="Times New Roman,serif" font-size="14.00">grad 1.0000</text>
</g>
<!-- 2387103252336&#45;&gt;2387171167296* -->
<g id="edge14" class="edge">
<title>2387103252336&#45;&gt;2387171167296*</title>
<path fill="none" stroke="black" d="M85.5,-69.53C98.75,-80.69 113.02,-92.7 124.66,-102.51"/>
<polygon fill="black" stroke="black" points="122.73,-105.45 132.63,-109.21 127.23,-100.1 122.73,-105.45"/>
</g>
<!-- 2387171180448 -->
<g id="node12" class="node">
<title>2387171180448</title>
<polygon fill="none" stroke="black" points="436.5,-44.5 436.5,-113.5 519.5,-113.5 519.5,-44.5 436.5,-44.5"/>
<text text-anchor="middle" x="478" y="-98.3" font-family="Times New Roman,serif" font-size="14.00">b</text>
<polyline fill="none" stroke="black" points="436.5,-90.5 519.5,-90.5"/>
<text text-anchor="middle" x="478" y="-75.3" font-family="Times New Roman,serif" font-size="14.00">data 6.8814</text>
<polyline fill="none" stroke="black" points="436.5,-67.5 519.5,-67.5"/>
<text text-anchor="middle" x="478" y="-52.3" font-family="Times New Roman,serif" font-size="14.00">grad 0.5000</text>
</g>
<!-- 2387171180448&#45;&gt;2387171167872+ -->
<g id="edge13" class="edge">
<title>2387171180448&#45;&gt;2387171167872+</title>
<path fill="none" stroke="black" d="M519.51,-94.64C533.08,-99.87 548.01,-105.63 560.85,-110.59"/>
<polygon fill="black" stroke="black" points="559.61,-113.86 570.2,-114.2 562.13,-107.33 559.61,-113.86"/>
</g>
<!-- 2387171167680 -->
<g id="node13" class="node">
<title>2387171167680</title>
<polygon fill="none" stroke="black" points="425,-132.5 425,-201.5 531,-201.5 531,-132.5 425,-132.5"/>
<text text-anchor="middle" x="478" y="-186.3" font-family="Times New Roman,serif" font-size="14.00">x1*w1 + x2*w2</text>
<polyline fill="none" stroke="black" points="425,-178.5 531,-178.5"/>
<text text-anchor="middle" x="478" y="-163.3" font-family="Times New Roman,serif" font-size="14.00">data &#45;6.0000</text>
<polyline fill="none" stroke="black" points="425,-155.5 531,-155.5"/>
<text text-anchor="middle" x="478" y="-140.3" font-family="Times New Roman,serif" font-size="14.00">grad 0.5000</text>
</g>
<!-- 2387171167680&#45;&gt;2387171167872+ -->
<g id="edge6" class="edge">
<title>2387171167680&#45;&gt;2387171167872+</title>
<path fill="none" stroke="black" d="M531.33,-146.8C541.39,-142.92 551.64,-138.96 560.83,-135.42"/>
<polygon fill="black" stroke="black" points="562.24,-138.62 570.31,-131.76 559.72,-132.09 562.24,-138.62"/>
</g>
<!-- 2387171167680+&#45;&gt;2387171167680 -->
<g id="edge5" class="edge">
<title>2387171167680+&#45;&gt;2387171167680</title>
<path fill="none" stroke="black" d="M389.15,-167C396.89,-167 405.71,-167 414.71,-167"/>
<polygon fill="black" stroke="black" points="414.9,-170.5 424.9,-167 414.9,-163.5 414.9,-170.5"/>
</g>
<!-- 2387171180496 -->
<g id="node15" class="node">
<title>2387171180496</title>
<polygon fill="none" stroke="black" points="2,-176.5 2,-245.5 85,-245.5 85,-176.5 2,-176.5"/>
<text text-anchor="middle" x="43.5" y="-230.3" font-family="Times New Roman,serif" font-size="14.00">w2</text>
<polyline fill="none" stroke="black" points="2,-222.5 85,-222.5"/>
<text text-anchor="middle" x="43.5" y="-207.3" font-family="Times New Roman,serif" font-size="14.00">data 1.0000</text>
<polyline fill="none" stroke="black" points="2,-199.5 85,-199.5"/>
<text text-anchor="middle" x="43.5" y="-184.3" font-family="Times New Roman,serif" font-size="14.00">grad 0.0000</text>
</g>
<!-- 2387171180496&#45;&gt;2387171167488* -->
<g id="edge7" class="edge">
<title>2387171180496&#45;&gt;2387171167488*</title>
<path fill="none" stroke="black" d="M85.2,-211C94.26,-211 103.81,-211 112.69,-211"/>
<polygon fill="black" stroke="black" points="112.72,-214.5 122.72,-211 112.72,-207.5 112.72,-214.5"/>
</g>
</g>
</svg>
