<?xml version="1.0" encoding="UTF-8" standalone="no"?>
<!DOCTYPE svg PUBLIC "-//W3C//DTD SVG 1.1//EN"
 "http://www.w3.org/Graphics/SVG/1.1/DTD/svg11.dtd">
<!-- Generated by graphviz version 6.0.1 (20220911.1526)
 -->
<!-- Pages: 1 -->
<svg width="732pt" height="184pt"
 viewBox="0.00 0.00 732.00 184.00" xmlns="http://www.w3.org/2000/svg" xmlns:xlink="http://www.w3.org/1999/xlink">
<g id="graph0" class="graph" transform="scale(1 1) rotate(0) translate(4 180)">
<polygon fill="white" stroke="none" points="-4,4 -4,-180 728,-180 728,4 -4,4"/>
<!-- 2116661845040 -->
<g id="node1" class="node">
<title>2116661845040</title>
<polygon fill="none" stroke="black" points="426,-129.5 426,-175.5 512,-175.5 512,-129.5 426,-129.5"/>
<text text-anchor="middle" x="469" y="-160.3" font-family="Times New Roman,serif" font-size="14.00">f</text>
<polyline fill="none" stroke="black" points="426,-152.5 512,-152.5"/>
<text text-anchor="middle" x="469" y="-137.3" font-family="Times New Roman,serif" font-size="14.00">data &#45;2.0000</text>
</g>
<!-- 2116661845136* -->
<g id="node3" class="node">
<title>2116661845136*</title>
<ellipse fill="none" stroke="black" cx="575" cy="-119.5" rx="27" ry="18"/>
<text text-anchor="middle" x="575" y="-115.8" font-family="Times New Roman,serif" font-size="14.00">*</text>
</g>
<!-- 2116661845040&#45;&gt;2116661845136* -->
<g id="edge7" class="edge">
<title>2116661845040&#45;&gt;2116661845136*</title>
<path fill="none" stroke="black" d="M512,-139.17C521.61,-136.13 531.68,-132.93 540.86,-130.02"/>
<polygon fill="black" stroke="black" points="541.92,-133.35 550.39,-126.99 539.8,-126.68 541.92,-133.35"/>
</g>
<!-- 2116661845136 -->
<g id="node2" class="node">
<title>2116661845136</title>
<polygon fill="none" stroke="black" points="638,-96.5 638,-142.5 724,-142.5 724,-96.5 638,-96.5"/>
<text text-anchor="middle" x="681" y="-127.3" font-family="Times New Roman,serif" font-size="14.00">L</text>
<polyline fill="none" stroke="black" points="638,-119.5 724,-119.5"/>
<text text-anchor="middle" x="681" y="-104.3" font-family="Times New Roman,serif" font-size="14.00">data &#45;8.0000</text>
</g>
<!-- 2116661845136*&#45;&gt;2116661845136 -->
<g id="edge1" class="edge">
<title>2116661845136*&#45;&gt;2116661845136</title>
<path fill="none" stroke="black" d="M602.24,-119.5C610.11,-119.5 619.04,-119.5 627.96,-119.5"/>
<polygon fill="black" stroke="black" points="627.98,-123 637.98,-119.5 627.98,-116 627.98,-123"/>
</g>
<!-- 2116597546672 -->
<g id="node4" class="node">
<title>2116597546672</title>
<polygon fill="none" stroke="black" points="0,-65.5 0,-111.5 86,-111.5 86,-65.5 0,-65.5"/>
<text text-anchor="middle" x="43" y="-96.3" font-family="Times New Roman,serif" font-size="14.00">b</text>
<polyline fill="none" stroke="black" points="0,-88.5 86,-88.5"/>
<text text-anchor="middle" x="43" y="-73.3" font-family="Times New Roman,serif" font-size="14.00">data &#45;3.0000</text>
</g>
<!-- 2116661844896* -->
<g id="node9" class="node">
<title>2116661844896*</title>
<ellipse fill="none" stroke="black" cx="149" cy="-55.5" rx="27" ry="18"/>
<text text-anchor="middle" x="149" y="-51.8" font-family="Times New Roman,serif" font-size="14.00">*</text>
</g>
<!-- 2116597546672&#45;&gt;2116661844896* -->
<g id="edge6" class="edge">
<title>2116597546672&#45;&gt;2116661844896*</title>
<path fill="none" stroke="black" d="M86,-75.17C95.61,-72.13 105.68,-68.93 114.86,-66.02"/>
<polygon fill="black" stroke="black" points="115.92,-69.35 124.39,-62.99 113.8,-62.68 115.92,-69.35"/>
</g>
<!-- 2116661844848 -->
<g id="node5" class="node">
<title>2116661844848</title>
<polygon fill="none" stroke="black" points="428.5,-64.5 428.5,-110.5 509.5,-110.5 509.5,-64.5 428.5,-64.5"/>
<text text-anchor="middle" x="469" y="-95.3" font-family="Times New Roman,serif" font-size="14.00">d</text>
<polyline fill="none" stroke="black" points="428.5,-87.5 509.5,-87.5"/>
<text text-anchor="middle" x="469" y="-72.3" font-family="Times New Roman,serif" font-size="14.00">data 4.0000</text>
</g>
<!-- 2116661844848&#45;&gt;2116661845136* -->
<g id="edge5" class="edge">
<title>2116661844848&#45;&gt;2116661845136*</title>
<path fill="none" stroke="black" d="M509.61,-99.69C519.75,-102.81 530.56,-106.13 540.37,-109.15"/>
<polygon fill="black" stroke="black" points="539.57,-112.57 550.16,-112.16 541.63,-105.88 539.57,-112.57"/>
</g>
<!-- 2116661844848+ -->
<g id="node6" class="node">
<title>2116661844848+</title>
<ellipse fill="none" stroke="black" cx="363" cy="-87.5" rx="27" ry="18"/>
<text text-anchor="middle" x="363" y="-83.8" font-family="Times New Roman,serif" font-size="14.00">+</text>
</g>
<!-- 2116661844848+&#45;&gt;2116661844848 -->
<g id="edge2" class="edge">
<title>2116661844848+&#45;&gt;2116661844848</title>
<path fill="none" stroke="black" d="M390.24,-87.5C398.82,-87.5 408.64,-87.5 418.36,-87.5"/>
<polygon fill="black" stroke="black" points="418.39,-91 428.39,-87.5 418.39,-84 418.39,-91"/>
</g>
<!-- 2116661407136 -->
<g id="node7" class="node">
<title>2116661407136</title>
<polygon fill="none" stroke="black" points="212,-97.5 212,-143.5 300,-143.5 300,-97.5 212,-97.5"/>
<text text-anchor="middle" x="256" y="-128.3" font-family="Times New Roman,serif" font-size="14.00">c</text>
<polyline fill="none" stroke="black" points="212,-120.5 300,-120.5"/>
<text text-anchor="middle" x="256" y="-105.3" font-family="Times New Roman,serif" font-size="14.00">data 10.0000</text>
</g>
<!-- 2116661407136&#45;&gt;2116661844848+ -->
<g id="edge9" class="edge">
<title>2116661407136&#45;&gt;2116661844848+</title>
<path fill="none" stroke="black" d="M300.01,-106.98C309.47,-104.01 319.36,-100.9 328.39,-98.06"/>
<polygon fill="black" stroke="black" points="329.66,-101.33 338.15,-94.99 327.57,-94.65 329.66,-101.33"/>
</g>
<!-- 2116661844896 -->
<g id="node8" class="node">
<title>2116661844896</title>
<polygon fill="none" stroke="black" points="213,-32.5 213,-78.5 299,-78.5 299,-32.5 213,-32.5"/>
<text text-anchor="middle" x="256" y="-63.3" font-family="Times New Roman,serif" font-size="14.00">e</text>
<polyline fill="none" stroke="black" points="213,-55.5 299,-55.5"/>
<text text-anchor="middle" x="256" y="-40.3" font-family="Times New Roman,serif" font-size="14.00">data &#45;6.0000</text>
</g>
<!-- 2116661844896&#45;&gt;2116661844848+ -->
<g id="edge4" class="edge">
<title>2116661844896&#45;&gt;2116661844848+</title>
<path fill="none" stroke="black" d="M299.1,-68.33C308.82,-71.29 319.04,-74.41 328.34,-77.24"/>
<polygon fill="black" stroke="black" points="327.43,-80.62 338.02,-80.19 329.47,-73.93 327.43,-80.62"/>
</g>
<!-- 2116661844896*&#45;&gt;2116661844896 -->
<g id="edge3" class="edge">
<title>2116661844896*&#45;&gt;2116661844896</title>
<path fill="none" stroke="black" d="M176.23,-55.5C184.26,-55.5 193.4,-55.5 202.53,-55.5"/>
<polygon fill="black" stroke="black" points="202.79,-59 212.79,-55.5 202.79,-52 202.79,-59"/>
</g>
<!-- 2116597546960 -->
<g id="node10" class="node">
<title>2116597546960</title>
<polygon fill="none" stroke="black" points="2.5,-0.5 2.5,-46.5 83.5,-46.5 83.5,-0.5 2.5,-0.5"/>
<text text-anchor="middle" x="43" y="-31.3" font-family="Times New Roman,serif" font-size="14.00">a</text>
<polyline fill="none" stroke="black" points="2.5,-23.5 83.5,-23.5"/>
<text text-anchor="middle" x="43" y="-8.3" font-family="Times New Roman,serif" font-size="14.00">data 2.0000</text>
</g>
<!-- 2116597546960&#45;&gt;2116661844896* -->
<g id="edge8" class="edge">
<title>2116597546960&#45;&gt;2116661844896*</title>
<path fill="none" stroke="black" d="M83.61,-35.69C93.75,-38.81 104.56,-42.13 114.37,-45.15"/>
<polygon fill="black" stroke="black" points="113.57,-48.57 124.16,-48.16 115.63,-41.88 113.57,-48.57"/>
</g>
</g>
</svg>
