<?xml version="1.0" encoding="UTF-8" standalone="no"?>
<!DOCTYPE svg PUBLIC "-//W3C//DTD SVG 1.1//EN"
 "http://www.w3.org/Graphics/SVG/1.1/DTD/svg11.dtd">
<!-- Generated by graphviz version 2.50.0 (0)
 -->
<!-- Pages: 1 -->
<svg width="953pt" height="342pt"
 viewBox="0.00 0.00 953.00 342.00" xmlns="http://www.w3.org/2000/svg" xmlns:xlink="http://www.w3.org/1999/xlink">
<g id="graph0" class="graph" transform="scale(1 1) rotate(0) translate(4 338)">
<polygon fill="white" stroke="transparent" points="-4,4 -4,-338 949,-338 949,4 -4,4"/>
<!-- 140435557465632 -->
<g id="node1" class="node">
<title>140435557465632</title>
<polygon fill="none" stroke="black" points="213.5,-88.5 213.5,-157.5 295.5,-157.5 295.5,-88.5 213.5,-88.5"/>
<text text-anchor="middle" x="254.5" y="-142.3" font-family="Times,serif" font-size="14.00">x2*w2</text>
<polyline fill="none" stroke="black" points="213.5,-134.5 295.5,-134.5 "/>
<text text-anchor="middle" x="254.5" y="-119.3" font-family="Times,serif" font-size="14.00">data 0.0000</text>
<polyline fill="none" stroke="black" points="213.5,-111.5 295.5,-111.5 "/>
<text text-anchor="middle" x="254.5" y="-96.3" font-family="Times,serif" font-size="14.00">grad 0.5000</text>
</g>
<!-- 140435557464432+ -->
<g id="node11" class="node">
<title>140435557464432+</title>
<ellipse fill="none" stroke="black" cx="360" cy="-167" rx="27" ry="18"/>
<text text-anchor="middle" x="360" y="-163.3" font-family="Times,serif" font-size="14.00">+</text>
</g>
<!-- 140435557465632&#45;&gt;140435557464432+ -->
<g id="edge9" class="edge">
<title>140435557465632&#45;&gt;140435557464432+</title>
<path fill="none" stroke="black" d="M295.52,-140.01C306.12,-144.52 317.42,-149.32 327.5,-153.61"/>
<polygon fill="black" stroke="black" points="326.16,-156.84 336.73,-157.53 328.9,-150.4 326.16,-156.84"/>
</g>
<!-- 140435557465632* -->
<g id="node2" class="node">
<title>140435557465632*</title>
<ellipse fill="none" stroke="black" cx="149" cy="-123" rx="27" ry="18"/>
<text text-anchor="middle" x="149" y="-119.3" font-family="Times,serif" font-size="14.00">*</text>
</g>
<!-- 140435557465632*&#45;&gt;140435557465632 -->
<g id="edge1" class="edge">
<title>140435557465632*&#45;&gt;140435557465632</title>
<path fill="none" stroke="black" d="M176.12,-123C184.39,-123 193.82,-123 203.19,-123"/>
<polygon fill="black" stroke="black" points="203.28,-126.5 213.28,-123 203.28,-119.5 203.28,-126.5"/>
</g>
<!-- 140435557464240 -->
<g id="node3" class="node">
<title>140435557464240</title>
<polygon fill="none" stroke="black" points="655,-176.5 655,-245.5 737,-245.5 737,-176.5 655,-176.5"/>
<text text-anchor="middle" x="696" y="-230.3" font-family="Times,serif" font-size="14.00">n</text>
<polyline fill="none" stroke="black" points="655,-222.5 737,-222.5 "/>
<text text-anchor="middle" x="696" y="-207.3" font-family="Times,serif" font-size="14.00">data 0.8814</text>
<polyline fill="none" stroke="black" points="655,-199.5 737,-199.5 "/>
<text text-anchor="middle" x="696" y="-184.3" font-family="Times,serif" font-size="14.00">grad 0.5000</text>
</g>
<!-- 140435557464048tanh -->
<g id="node15" class="node">
<title>140435557464048tanh</title>
<ellipse fill="none" stroke="black" cx="800" cy="-211" rx="27" ry="18"/>
<text text-anchor="middle" x="800" y="-207.3" font-family="Times,serif" font-size="14.00">tanh</text>
</g>
<!-- 140435557464240&#45;&gt;140435557464048tanh -->
<g id="edge8" class="edge">
<title>140435557464240&#45;&gt;140435557464048tanh</title>
<path fill="none" stroke="black" d="M737.02,-211C745.5,-211 754.4,-211 762.73,-211"/>
<polygon fill="black" stroke="black" points="762.89,-214.5 772.89,-211 762.89,-207.5 762.89,-214.5"/>
</g>
<!-- 140435557464240+ -->
<g id="node4" class="node">
<title>140435557464240+</title>
<ellipse fill="none" stroke="black" cx="592" cy="-211" rx="27" ry="18"/>
<text text-anchor="middle" x="592" y="-207.3" font-family="Times,serif" font-size="14.00">+</text>
</g>
<!-- 140435557464240+&#45;&gt;140435557464240 -->
<g id="edge2" class="edge">
<title>140435557464240+&#45;&gt;140435557464240</title>
<path fill="none" stroke="black" d="M619,-211C626.81,-211 635.65,-211 644.48,-211"/>
<polygon fill="black" stroke="black" points="644.76,-214.5 654.76,-211 644.76,-207.5 644.76,-214.5"/>
</g>
<!-- 140435557465776 -->
<g id="node5" class="node">
<title>140435557465776</title>
<polygon fill="none" stroke="black" points="2,-88.5 2,-157.5 84,-157.5 84,-88.5 2,-88.5"/>
<text text-anchor="middle" x="43" y="-142.3" font-family="Times,serif" font-size="14.00">w2</text>
<polyline fill="none" stroke="black" points="2,-134.5 84,-134.5 "/>
<text text-anchor="middle" x="43" y="-119.3" font-family="Times,serif" font-size="14.00">data 1.0000</text>
<polyline fill="none" stroke="black" points="2,-111.5 84,-111.5 "/>
<text text-anchor="middle" x="43" y="-96.3" font-family="Times,serif" font-size="14.00">grad 0.0000</text>
</g>
<!-- 140435557465776&#45;&gt;140435557465632* -->
<g id="edge12" class="edge">
<title>140435557465776&#45;&gt;140435557465632*</title>
<path fill="none" stroke="black" d="M84.21,-123C93.25,-123 102.79,-123 111.66,-123"/>
<polygon fill="black" stroke="black" points="111.69,-126.5 121.69,-123 111.69,-119.5 111.69,-126.5"/>
</g>
<!-- 140435557465824 -->
<g id="node6" class="node">
<title>140435557465824</title>
<polygon fill="none" stroke="black" points="435,-220.5 435,-289.5 517,-289.5 517,-220.5 435,-220.5"/>
<text text-anchor="middle" x="476" y="-274.3" font-family="Times,serif" font-size="14.00">b</text>
<polyline fill="none" stroke="black" points="435,-266.5 517,-266.5 "/>
<text text-anchor="middle" x="476" y="-251.3" font-family="Times,serif" font-size="14.00">data 6.8814</text>
<polyline fill="none" stroke="black" points="435,-243.5 517,-243.5 "/>
<text text-anchor="middle" x="476" y="-228.3" font-family="Times,serif" font-size="14.00">grad 0.5000</text>
</g>
<!-- 140435557465824&#45;&gt;140435557464240+ -->
<g id="edge6" class="edge">
<title>140435557465824&#45;&gt;140435557464240+</title>
<path fill="none" stroke="black" d="M517.19,-239.49C530.78,-234.24 545.77,-228.46 558.67,-223.48"/>
<polygon fill="black" stroke="black" points="560,-226.72 568.07,-219.85 557.48,-220.19 560,-226.72"/>
</g>
<!-- 140435818069872 -->
<g id="node7" class="node">
<title>140435818069872</title>
<polygon fill="none" stroke="black" points="0,-264.5 0,-333.5 86,-333.5 86,-264.5 0,-264.5"/>
<text text-anchor="middle" x="43" y="-318.3" font-family="Times,serif" font-size="14.00">x1</text>
<polyline fill="none" stroke="black" points="0,-310.5 86,-310.5 "/>
<text text-anchor="middle" x="43" y="-295.3" font-family="Times,serif" font-size="14.00">data 2.0000</text>
<polyline fill="none" stroke="black" points="0,-287.5 86,-287.5 "/>
<text text-anchor="middle" x="43" y="-272.3" font-family="Times,serif" font-size="14.00">grad &#45;1.5000</text>
</g>
<!-- 140435557465920* -->
<g id="node9" class="node">
<title>140435557465920*</title>
<ellipse fill="none" stroke="black" cx="149" cy="-211" rx="27" ry="18"/>
<text text-anchor="middle" x="149" y="-207.3" font-family="Times,serif" font-size="14.00">*</text>
</g>
<!-- 140435818069872&#45;&gt;140435557465920* -->
<g id="edge11" class="edge">
<title>140435818069872&#45;&gt;140435557465920*</title>
<path fill="none" stroke="black" d="M84.81,-264.47C97.9,-253.39 111.99,-241.47 123.54,-231.7"/>
<polygon fill="black" stroke="black" points="126.07,-234.14 131.44,-225.01 121.55,-228.8 126.07,-234.14"/>
</g>
<!-- 140435557465920 -->
<g id="node8" class="node">
<title>140435557465920</title>
<polygon fill="none" stroke="black" points="212,-176.5 212,-245.5 297,-245.5 297,-176.5 212,-176.5"/>
<text text-anchor="middle" x="254.5" y="-230.3" font-family="Times,serif" font-size="14.00">x1*w1</text>
<polyline fill="none" stroke="black" points="212,-222.5 297,-222.5 "/>
<text text-anchor="middle" x="254.5" y="-207.3" font-family="Times,serif" font-size="14.00">data &#45;6.0000</text>
<polyline fill="none" stroke="black" points="212,-199.5 297,-199.5 "/>
<text text-anchor="middle" x="254.5" y="-184.3" font-family="Times,serif" font-size="14.00">grad 0.5000</text>
</g>
<!-- 140435557465920&#45;&gt;140435557464432+ -->
<g id="edge14" class="edge">
<title>140435557465920&#45;&gt;140435557464432+</title>
<path fill="none" stroke="black" d="M297,-193.36C307.21,-189.02 317.97,-184.44 327.61,-180.34"/>
<polygon fill="black" stroke="black" points="328.98,-183.56 336.81,-176.43 326.24,-177.12 328.98,-183.56"/>
</g>
<!-- 140435557465920*&#45;&gt;140435557465920 -->
<g id="edge3" class="edge">
<title>140435557465920*&#45;&gt;140435557465920</title>
<path fill="none" stroke="black" d="M176.12,-211C183.87,-211 192.64,-211 201.42,-211"/>
<polygon fill="black" stroke="black" points="201.68,-214.5 211.68,-211 201.68,-207.5 201.68,-214.5"/>
</g>
<!-- 140435557464432 -->
<g id="node10" class="node">
<title>140435557464432</title>
<polygon fill="none" stroke="black" points="423,-132.5 423,-201.5 529,-201.5 529,-132.5 423,-132.5"/>
<text text-anchor="middle" x="476" y="-186.3" font-family="Times,serif" font-size="14.00">x1*w1 + x2*w2</text>
<polyline fill="none" stroke="black" points="423,-178.5 529,-178.5 "/>
<text text-anchor="middle" x="476" y="-163.3" font-family="Times,serif" font-size="14.00">data &#45;6.0000</text>
<polyline fill="none" stroke="black" points="423,-155.5 529,-155.5 "/>
<text text-anchor="middle" x="476" y="-140.3" font-family="Times,serif" font-size="14.00">grad 0.5000</text>
</g>
<!-- 140435557464432&#45;&gt;140435557464240+ -->
<g id="edge10" class="edge">
<title>140435557464432&#45;&gt;140435557464240+</title>
<path fill="none" stroke="black" d="M529.33,-187.2C539.39,-191.08 549.64,-195.04 558.83,-198.58"/>
<polygon fill="black" stroke="black" points="557.72,-201.91 568.31,-202.24 560.24,-195.38 557.72,-201.91"/>
</g>
<!-- 140435557464432+&#45;&gt;140435557464432 -->
<g id="edge4" class="edge">
<title>140435557464432+&#45;&gt;140435557464432</title>
<path fill="none" stroke="black" d="M387.15,-167C394.89,-167 403.71,-167 412.71,-167"/>
<polygon fill="black" stroke="black" points="412.9,-170.5 422.9,-167 412.9,-163.5 412.9,-170.5"/>
</g>
<!-- 140435818069920 -->
<g id="node12" class="node">
<title>140435818069920</title>
<polygon fill="none" stroke="black" points="0.5,-176.5 0.5,-245.5 85.5,-245.5 85.5,-176.5 0.5,-176.5"/>
<text text-anchor="middle" x="43" y="-230.3" font-family="Times,serif" font-size="14.00">w1</text>
<polyline fill="none" stroke="black" points="0.5,-222.5 85.5,-222.5 "/>
<text text-anchor="middle" x="43" y="-207.3" font-family="Times,serif" font-size="14.00">data &#45;3.0000</text>
<polyline fill="none" stroke="black" points="0.5,-199.5 85.5,-199.5 "/>
<text text-anchor="middle" x="43" y="-184.3" font-family="Times,serif" font-size="14.00">grad 1.0000</text>
</g>
<!-- 140435818069920&#45;&gt;140435557465920* -->
<g id="edge13" class="edge">
<title>140435818069920&#45;&gt;140435557465920*</title>
<path fill="none" stroke="black" d="M85.7,-211C94.28,-211 103.26,-211 111.63,-211"/>
<polygon fill="black" stroke="black" points="111.85,-214.5 121.85,-211 111.85,-207.5 111.85,-214.5"/>
</g>
<!-- 140435818069968 -->
<g id="node13" class="node">
<title>140435818069968</title>
<polygon fill="none" stroke="black" points="2,-0.5 2,-69.5 84,-69.5 84,-0.5 2,-0.5"/>
<text text-anchor="middle" x="43" y="-54.3" font-family="Times,serif" font-size="14.00">x2</text>
<polyline fill="none" stroke="black" points="2,-46.5 84,-46.5 "/>
<text text-anchor="middle" x="43" y="-31.3" font-family="Times,serif" font-size="14.00">data 0.0000</text>
<polyline fill="none" stroke="black" points="2,-23.5 84,-23.5 "/>
<text text-anchor="middle" x="43" y="-8.3" font-family="Times,serif" font-size="14.00">grad 0.5000</text>
</g>
<!-- 140435818069968&#45;&gt;140435557465632* -->
<g id="edge7" class="edge">
<title>140435818069968&#45;&gt;140435557465632*</title>
<path fill="none" stroke="black" d="M84.21,-69.02C97.58,-80.34 112.06,-92.59 123.83,-102.55"/>
<polygon fill="black" stroke="black" points="121.61,-105.26 131.51,-109.04 126.13,-99.91 121.61,-105.26"/>
</g>
<!-- 140435557464048 -->
<g id="node14" class="node">
<title>140435557464048</title>
<polygon fill="none" stroke="black" points="863,-176.5 863,-245.5 945,-245.5 945,-176.5 863,-176.5"/>
<text text-anchor="middle" x="904" y="-230.3" font-family="Times,serif" font-size="14.00">o</text>
<polyline fill="none" stroke="black" points="863,-222.5 945,-222.5 "/>
<text text-anchor="middle" x="904" y="-207.3" font-family="Times,serif" font-size="14.00">data 0.7071</text>
<polyline fill="none" stroke="black" points="863,-199.5 945,-199.5 "/>
<text text-anchor="middle" x="904" y="-184.3" font-family="Times,serif" font-size="14.00">grad 1.0000</text>
</g>
<!-- 140435557464048tanh&#45;&gt;140435557464048 -->
<g id="edge5" class="edge">
<title>140435557464048tanh&#45;&gt;140435557464048</title>
<path fill="none" stroke="black" d="M827,-211C834.81,-211 843.65,-211 852.48,-211"/>
<polygon fill="black" stroke="black" points="852.76,-214.5 862.76,-211 852.76,-207.5 852.76,-214.5"/>
</g>
</g>
</svg>
